<svg xmlns="http://www.w3.org/2000/svg" xmlns:xlink="http://www.w3.org/1999/xlink" x="0px" y="0px"
	 viewBox="0 0 368 368" style="enable-background:new 0 0 368 368;" xml:space="preserve">
<g>
	<g>
		<path d="M245.192,150.328C258.88,135.496,272,112.8,272,88c0-48.52-39.48-88-88-88c-48.52,0-88,39.48-88,88
			c0,24.8,13.12,47.496,26.808,62.328C85.784,173.248,64,209.096,64,248c0,66.168,53.832,120,120,120s120-53.832,120-120
			C304,209.096,282.216,173.248,245.192,150.328z M255.44,79.44c-32.864-3.92-58.968-30.024-62.888-62.888
			C225.416,20.472,251.528,46.584,255.44,79.44z M175.44,16.56c-3.92,32.864-30.024,58.968-62.888,62.888
			C116.472,46.584,142.584,20.472,175.44,16.56z M184,352c-57.344,0-104-46.656-104-104c0-36.064,22.328-69.296,59.712-88.912
			c2.344-1.232,3.936-3.544,4.232-6.176c0.296-2.632-0.72-5.24-2.736-6.976c-12.92-11.112-25.888-30.328-28.624-50.368
			C144.4,92.472,171.24,72.336,184,44.448c12.76,27.888,39.592,48.024,71.416,51.12c-2.744,20.04-15.704,39.256-28.624,50.368
			c-2.008,1.728-3.032,4.336-2.736,6.976s1.888,4.944,4.232,6.176C265.672,178.704,288,211.936,288,248
			C288,305.344,241.344,352,184,352z"/>
	</g>
</g>
<g>
	<g>
		<path d="M248,240c-30.88,0-56-25.128-56-56c0-4.416-3.584-8-8-8c-4.416,0-8,3.584-8,8c0,30.872-25.12,56-56,56
			c-4.416,0-8,3.576-8,8c0,39.704,32.304,72,72,72s72-32.296,72-72C256,243.576,252.416,240,248,240z M184,304
			c-28.336,0-51.824-21.16-55.504-48.504c24.2-2.856,44.76-17.76,55.504-38.528c10.744,20.768,31.304,35.672,55.504,38.528
			C235.824,282.84,212.336,304,184,304z"/>
	</g>
</g>
</svg>
