<svg xmlns="http://www.w3.org/2000/svg" fill="#fff" viewBox="0 0 100 125"><path fill-rule="evenodd" clip-rule="evenodd" d="M70.794 56.422a23.414 23.414 0 0 1 2.715 10.975c0 12.982-10.525 23.51-23.509 23.51S26.49 80.38 26.49 67.397c0-3.963.983-7.699 2.716-10.975C38.338 55.869 46.121 51.34 50 44.938c3.877 6.402 11.662 10.931 20.794 11.484m-6.376-38.186c.318 1.213.488 2.485.488 3.798 0 8.233-6.674 14.907-14.906 14.907-8.233 0-14.907-6.674-14.907-14.907 0-1.313.17-2.585.489-3.798.419.03.841.046 1.268.046 5.763 0 10.749-2.823 13.15-6.931 2.4 4.107 7.387 6.931 13.149 6.931.428 0 .85-.016 1.269-.046zM80.227 64.25c.106 1.035.162 2.084.162 3.146 0 16.783-13.605 30.389-30.389 30.389S19.611 84.18 19.611 67.396c0-.967.047-1.922.135-2.867.45-6.602 1.906-13.209 5.146-19.81 3.711-7.559 5.088-15.123 5.288-22.685v-.001c0-10.945 8.874-19.818 19.819-19.818 10.946 0 19.819 8.873 19.819 19.818l-.001.141c.218 7.516 1.598 15.035 5.282 22.545 3.193 6.51 4.656 13.021 5.128 19.531z"/></svg>