<svg xmlns="http://www.w3.org/2000/svg" viewBox="0 0 100 125"><path d="M81.544 23.003C78.355 10.249 67.422 0 50 0 32.579 0 21.417 10.704 18.456 23.003c-1.069 4.44-9.452 26.658-9.452 41.085C9.004 90.211 27.358 100 50 100s40.996-9.789 40.996-35.912c0-14.427-8.344-36.654-9.452-41.085zM50.255 52.099c-15.095 0-27.331-8.637-27.331-21.323s7.232-22.97 27.331-22.97c19.458 0 27.33 10.284 27.33 22.97s-12.236 21.323-27.33 21.323z"/><path d="M30.026 24.793c1.403 1.295 3.427 2.109 5.676 2.109 2.25 0 4.273-.813 5.677-2.109-1.403-1.295-3.427-2.109-5.677-2.109-2.249 0-4.272.814-5.676 2.109zm29.291 0c1.403 1.295 3.426 2.109 5.677 2.109 2.249 0 4.272-.813 5.676-2.109-1.403-1.295-3.427-2.109-5.676-2.109-2.251 0-4.273.814-5.677 2.109z"/><circle cx="66.486" cy="35.731" r="3.24"/><circle cx="33.514" cy="35.731" r="3.24"/><path d="M45.302 39.512c.162.303 2.684 1.493 4.714 1.493 2.317 0 4.629-1.189 4.791-1.493.218-.408-.065-.582-.412-.582h-8.681c-.347 0-.631.174-.412.582z"/></svg>