<svg xmlns="http://www.w3.org/2000/svg" viewBox="0 0 368 368"><path d="M245.192 150.328C258.88 135.496 272 112.8 272 88c0-48.52-39.48-88-88-88S96 39.48 96 88c0 24.8 13.12 47.496 26.808 62.328C85.784 173.248 64 209.096 64 248c0 66.168 53.832 120 120 120s120-53.832 120-120c0-38.904-21.784-74.752-58.808-97.672zM255.44 79.44c-32.864-3.92-58.968-30.024-62.888-62.888 32.864 3.92 58.976 30.032 62.888 62.888zm-80-62.88c-3.92 32.864-30.024 58.968-62.888 62.888 3.92-32.864 30.032-58.976 62.888-62.888zM184 352c-57.344 0-104-46.656-104-104 0-36.064 22.328-69.296 59.712-88.912a7.997 7.997 0 0 0 1.496-13.152c-12.92-11.112-25.888-30.328-28.624-50.368C144.4 92.472 171.24 72.336 184 44.448c12.76 27.888 39.592 48.024 71.416 51.12-2.744 20.04-15.704 39.256-28.624 50.368-2.008 1.728-3.032 4.336-2.736 6.976s1.888 4.944 4.232 6.176C265.672 178.704 288 211.936 288 248c0 57.344-46.656 104-104 104z"/><path d="M248 240c-30.88 0-56-25.128-56-56 0-4.416-3.584-8-8-8s-8 3.584-8 8c0 30.872-25.12 56-56 56-4.416 0-8 3.576-8 8 0 39.704 32.304 72 72 72s72-32.296 72-72c0-4.424-3.584-8-8-8zm-64 64c-28.336 0-51.824-21.16-55.504-48.504 24.2-2.856 44.76-17.76 55.504-38.528 10.744 20.768 31.304 35.672 55.504 38.528C235.824 282.84 212.336 304 184 304z"/></svg>