<svg xmlns="http://www.w3.org/2000/svg" viewBox="0 0 333.6 333.6"><path d="M128 58.297h29.2l-46.8-53.6c-4-4.4-10.8-5.2-15.6-1.2-4.4 4-5.2 10.8-1.2 15.6l34.4 39.2zm98.4-16.4c4.4-4.4 4.4-11.2 0-15.6s-11.2-4.4-15.6 0l-31.6 31.6H210l16.4-16zm82.4 28.4h-284c-13.6 0-24.8 11.2-24.8 24.8v178c0 13.6 11.2 24.8 24.8 24.8h284c13.6 0 24.8-11.2 24.8-24.8v-178c0-13.6-11.2-24.8-24.8-24.8zm-73.2 175.6c0 9.6-7.6 17.2-17.2 17.2H54c-9.6 0-17.2-7.6-17.2-17.2v-123.2c0-9.6 7.6-17.2 17.2-17.2h164.4c9.6 0 17.2 7.6 17.2 17.2v123.2zm70.8-38.4c0 2-1.6 3.6-3.6 3.6h-36c-2 0-3.6-1.6-3.6-3.6v-27.2c0-2 1.6-3.6 3.6-3.6h36c2 0 3.6 1.6 3.6 3.6v27.2zm0-57.6c0 2-1.6 3.6-3.6 3.6h-36c-2 0-3.6-1.6-3.6-3.6v-27.2c0-2 1.6-3.6 3.6-3.6h36c2 0 3.6 1.6 3.6 3.6v27.2zm-281.6 170c0 7.2 5.6 12.8 12.8 12.8h12.8c7.2 0 12.8-5.6 12.8-12.8v-10H24.8v10zm245.6 0c0 7.2 5.6 12.8 12.8 12.8H296c7.2 0 12.8-5.6 12.8-12.8v-10h-38.4v10z"/></svg>